<?xml version="1.0" encoding="UTF-8"?>
<!DOCTYPE svg PUBLIC "-//W3C//DTD SVG 1.1//EN" "http://www.w3.org/Graphics/SVG/1.1/DTD/svg11.dtd">
<svg xmlns="http://www.w3.org/2000/svg" version="1.1" width="145px" height="168px" style="shape-rendering:geometricPrecision; text-rendering:geometricPrecision; image-rendering:optimizeQuality; fill-rule:evenodd; clip-rule:evenodd" xmlns:xlink="http://www.w3.org/1999/xlink">
<g><path style="opacity:0.863" fill="#db6640" d="M 80.5,-0.5 C 80.8333,-0.5 81.1667,-0.5 81.5,-0.5C 86.02,1.09328 90.3533,3.25995 94.5,6C 97.1177,8.1057 99.1177,10.6057 100.5,13.5C 98.0365,11.5389 95.7032,9.37219 93.5,7C 88.7329,4.95958 84.3996,2.45958 80.5,-0.5 Z"/></g>
<g><path style="opacity:0.945" fill="#da663e" d="M 45.5,10.5 C 44.9202,12.7488 43.5869,14.4154 41.5,15.5C 42.0798,13.2512 43.4131,11.5846 45.5,10.5 Z"/></g>
<g><path style="opacity:1" fill="#ef5f2f" d="M 61.5,0.5 C 61.6309,1.37644 61.2975,2.04311 60.5,2.5C 56.4669,3.05249 53.4669,5.05249 51.5,8.5C 53.0577,10.9907 54.0577,13.6574 54.5,16.5C 55.5,16.5 56.5,16.5 57.5,16.5C 57.33,15.1779 57.6634,14.0113 58.5,13C 61.8168,12.5017 65.1501,12.335 68.5,12.5C 62.8622,13.8209 57.8622,16.4875 53.5,20.5C 52.5,20.5 51.5,20.5 50.5,20.5C 50.7845,22.4147 50.4511,24.0813 49.5,25.5C 48.7375,24.7321 47.7375,24.2321 46.5,24C 49.6282,20.506 51.2949,16.6727 51.5,12.5C 49.9685,9.88416 47.9685,9.2175 45.5,10.5C 49.4194,5.1916 54.7528,1.85826 61.5,0.5 Z"/></g>
<g><path style="opacity:1" fill="#e26238" d="M 85.5,16.5 C 87.9107,18.2191 90.5773,19.5524 93.5,20.5C 93.0688,21.2935 92.7355,22.1268 92.5,23C 94.1458,25.595 94.8125,28.4284 94.5,31.5C 92.8038,25.7836 89.8038,20.7836 85.5,16.5 Z"/></g>
<g><path style="opacity:1" fill="#df633c" d="M 53.5,20.5 C 52.4031,23.6865 51.0697,26.6865 49.5,29.5C 49.5,28.1667 49.5,26.8333 49.5,25.5C 50.4511,24.0813 50.7845,22.4147 50.5,20.5C 51.5,20.5 52.5,20.5 53.5,20.5 Z"/></g>
<g><path style="opacity:1" fill="#e6623c" d="M 40.5,16.5 C 40.5326,20.7419 39.1992,24.4086 36.5,27.5C 37.0249,23.467 38.3582,19.8004 40.5,16.5 Z"/></g>
<g><path style="opacity:1" fill="#e9623a" d="M 94.5,31.5 C 95.7251,32.1522 96.3917,33.3189 96.5,35C 96.3917,36.6811 95.7251,37.8478 94.5,38.5C 94.5,36.1667 94.5,33.8333 94.5,31.5 Z"/></g>
<g><path style="opacity:1" fill="#e0623e" d="M 36.5,27.5 C 37.069,31.3293 36.4023,34.6627 34.5,37.5C 34.7526,33.9601 35.4192,30.6267 36.5,27.5 Z"/></g>
<g><path style="opacity:1" fill="#f75c2b" d="M 62.5,-0.5 C 68.5,-0.5 74.5,-0.5 80.5,-0.5C 84.3996,2.45958 88.7329,4.95958 93.5,7C 95.7032,9.37219 98.0365,11.5389 100.5,13.5C 102.81,16.1019 104.643,19.1019 106,22.5C 107.415,27.6551 108.581,32.8217 109.5,38C 115.491,38.4995 121.491,38.6662 127.5,38.5C 128.552,40.256 130.219,40.9227 132.5,40.5C 133.833,40.5 134.5,41.1667 134.5,42.5C 134.077,44.7812 134.744,46.4479 136.5,47.5C 136.5,49.1667 136.5,50.8333 136.5,52.5C 136.334,61.1731 136.5,69.8397 137,78.5C 137.383,79.056 137.883,79.3893 138.5,79.5C 137.874,86.5837 138.541,93.2504 140.5,99.5C 141.486,115.009 142.82,130.343 144.5,145.5C 144.5,149.5 144.5,153.5 144.5,157.5C 143.833,158.167 143.167,158.833 142.5,159.5C 141.18,160.942 139.514,161.608 137.5,161.5C 137.5,162.5 137.5,163.5 137.5,164.5C 101.5,164.5 65.5,164.5 29.5,164.5C 29.5,163.5 29.5,162.5 29.5,161.5C 32.8617,157.808 36.1951,154.141 39.5,150.5C 41.8333,150.167 43.1667,148.833 43.5,146.5C 44.8333,144.5 46.5,142.833 48.5,141.5C 53.422,137.92 58.0887,133.92 62.5,129.5C 66.1073,128.511 69.774,128.177 73.5,128.5C 77.1932,127.94 80.8598,127.273 84.5,126.5C 88.1667,124.833 90.8333,122.167 92.5,118.5C 101.078,111.426 109.245,103.76 117,95.5C 117.494,93.8659 117.66,92.1992 117.5,90.5C 117.489,88.9826 116.823,87.8159 115.5,87C 113.109,86.7132 110.776,86.2132 108.5,85.5C 106.248,87.2967 105.248,89.6301 105.5,92.5C 104.833,93.8333 103.833,94.8333 102.5,95.5C 102.44,94.9569 102.107,94.6236 101.5,94.5C 100.295,95.5769 99.6282,96.9102 99.5,98.5C 97.1432,98.3367 94.8098,98.5034 92.5,99C 94.1066,100.049 94.7733,101.549 94.5,103.5C 93.1266,103.343 91.7932,103.51 90.5,104C 91.2524,104.671 91.5858,105.504 91.5,106.5C 88.6644,107.776 85.6644,108.442 82.5,108.5C 82.3433,107.127 82.51,105.793 83,104.5C 86.1117,101.899 88.6117,98.8991 90.5,95.5C 95.8333,92.1667 100.167,87.8333 103.5,82.5C 105.23,77.8713 103.563,75.2046 98.5,74.5C 96.2627,75.449 93.9294,76.1156 91.5,76.5C 91.5,78.1667 91.5,79.8333 91.5,81.5C 90.1667,83.5 88.5,85.1667 86.5,86.5C 81.4582,85.5049 79.1248,87.5049 79.5,92.5C 78.1266,92.3433 76.7932,92.51 75.5,93C 76.3366,94.0113 76.67,95.1779 76.5,96.5C 74.5,96.5 72.5,96.5 70.5,96.5C 70.9628,93.779 71.6295,91.1123 72.5,88.5C 78.4639,82.0352 84.6306,75.7019 91,69.5C 91.4935,67.8659 91.6602,66.1992 91.5,64.5C 91.5,63.1667 91.5,61.8333 91.5,60.5C 90.0157,56.6948 89.0157,52.6948 88.5,48.5C 88.8333,47.8333 89.1667,47.1667 89.5,46.5C 88.0471,44.5334 87.0471,42.3668 86.5,40C 78.8333,39.3333 71.1667,39.3333 63.5,40C 62.3333,41.1667 61.1667,42.3333 60,43.5C 58.5421,42.2532 57.0421,42.2532 55.5,43.5C 54.2888,44.2739 54.2888,45.1072 55.5,46C 53.6472,47.6686 51.6472,47.8353 49.5,46.5C 53.3354,45.0035 53.3354,44.0035 49.5,43.5C 49.5,41.8333 49.5,40.1667 49.5,38.5C 64.5,38.5 79.5,38.5 94.5,38.5C 95.7251,37.8478 96.3917,36.6811 96.5,35C 96.3917,33.3189 95.7251,32.1522 94.5,31.5C 94.8125,28.4284 94.1458,25.595 92.5,23C 92.7355,22.1268 93.0688,21.2935 93.5,20.5C 90.5773,19.5524 87.9107,18.2191 85.5,16.5C 82.7609,12.9906 79.0943,11.6572 74.5,12.5C 72.5,12.5 70.5,12.5 68.5,12.5C 65.1501,12.335 61.8168,12.5017 58.5,13C 57.6634,14.0113 57.33,15.1779 57.5,16.5C 56.5,16.5 55.5,16.5 54.5,16.5C 54.0577,13.6574 53.0577,10.9907 51.5,8.5C 53.4669,5.05249 56.4669,3.05249 60.5,2.5C 61.2975,2.04311 61.6309,1.37644 61.5,0.5C 62.1667,0.5 62.5,0.166667 62.5,-0.5 Z"/></g>
<g><path style="opacity:0.914" fill="#de643b" d="M 74.5,12.5 C 79.0943,11.6572 82.7609,12.9906 85.5,16.5C 81.9178,14.7521 78.2511,13.4188 74.5,12.5 Z"/></g>
<g><path style="opacity:1" fill="#da6946" d="M 127.5,38.5 C 129.698,38.1201 131.365,38.7868 132.5,40.5C 130.219,40.9227 128.552,40.256 127.5,38.5 Z"/></g>
<g><path style="opacity:1" fill="#d96444" d="M 15.5,38.5 C 12.7621,39.8262 10.4288,41.8262 8.5,44.5C 8.16667,44.5 7.83333,44.5 7.5,44.5C 8.70621,40.6349 11.3729,38.6349 15.5,38.5 Z"/></g>
<g><path style="opacity:1" fill="#f75c2a" d="M 49.5,25.5 C 49.5,26.8333 49.5,28.1667 49.5,29.5C 48.9221,32.612 48.9221,35.612 49.5,38.5C 49.5,40.1667 49.5,41.8333 49.5,43.5C 53.3354,44.0035 53.3354,45.0035 49.5,46.5C 51.6472,47.8353 53.6472,47.6686 55.5,46C 54.2888,45.1072 54.2888,44.2739 55.5,43.5C 57.0421,42.2532 58.5421,42.2532 60,43.5C 61.1667,42.3333 62.3333,41.1667 63.5,40C 71.1667,39.3333 78.8333,39.3333 86.5,40C 87.0471,42.3668 88.0471,44.5334 89.5,46.5C 89.1667,47.1667 88.8333,47.8333 88.5,48.5C 89.0157,52.6948 90.0157,56.6948 91.5,60.5C 88.1535,59.3266 84.8202,59.4933 81.5,61C 82.3802,62.3561 82.7135,63.8561 82.5,65.5C 81.2101,64.9423 80.3768,63.9423 80,62.5C 78.7063,63.8544 78.5396,65.1877 79.5,66.5C 78.6086,67.5896 77.6086,67.5896 76.5,66.5C 75.4554,68.4005 74.1221,70.0672 72.5,71.5C 71.5713,72.6888 71.238,74.0222 71.5,75.5C 66.8333,76.1667 64.1667,78.8333 63.5,83.5C 62.1779,83.67 61.0113,83.3366 60,82.5C 58.3897,84.9393 57.5564,87.606 57.5,90.5C 56.8333,90.8333 56.1667,91.1667 55.5,91.5C 54.1667,91.5 52.8333,91.5 51.5,91.5C 50.7985,100.828 50.1318,110.161 49.5,119.5C 49.5,120.167 49.1667,120.5 48.5,120.5C 47.1667,120.5 45.8333,120.5 44.5,120.5C 44.8244,123.694 43.6578,124.694 41,123.5C 40.51,124.793 40.3433,126.127 40.5,127.5C 36.5089,126.872 35.1755,128.205 36.5,131.5C 34.8333,133.833 32.8333,135.833 30.5,137.5C 30.1788,135.952 29.1788,135.285 27.5,135.5C 27.5,136.833 27.5,138.167 27.5,139.5C 24.9208,139.917 22.7542,139.25 21,137.5C 20.51,138.793 20.3433,140.127 20.5,141.5C 21.675,141.281 22.675,141.614 23.5,142.5C 22.1667,143.167 20.8333,143.833 19.5,144.5C 20.1272,145.417 20.4606,146.417 20.5,147.5C 19.5,147.5 18.5,147.5 17.5,147.5C 17.321,145.394 16.321,143.728 14.5,142.5C 13.914,142.709 13.414,143.043 13,143.5C 12.3333,140.833 11.6667,138.167 11,135.5C 8.85391,138.594 9.02058,141.594 11.5,144.5C 10.1311,148.246 7.63109,150.912 4,152.5C 3.50776,151.451 3.67443,150.451 4.5,149.5C 3.67504,148.614 2.67504,148.281 1.5,148.5C 2.27713,136.516 2.61047,124.516 2.5,112.5C 2.5,111.833 2.5,111.167 2.5,110.5C 3.28997,109.391 3.78997,108.058 4,106.5C 4.49962,99.5079 4.66629,92.5079 4.5,85.5C 6.72239,85.4413 7.72239,84.2747 7.5,82C 6.585,74.5325 6.25166,67.0325 6.5,59.5C 6.5,59.1667 6.5,58.8333 6.5,58.5C 7.11742,58.3893 7.61742,58.056 8,57.5C 8.49902,53.1794 8.66568,48.8461 8.5,44.5C 10.4288,41.8262 12.7621,39.8262 15.5,38.5C 22.0221,38.8235 28.3554,38.4902 34.5,37.5C 36.4023,34.6627 37.069,31.3293 36.5,27.5C 39.1992,24.4086 40.5326,20.7419 40.5,16.5C 40.5,15.8333 40.8333,15.5 41.5,15.5C 43.5869,14.4154 44.9202,12.7488 45.5,10.5C 47.9685,9.2175 49.9685,9.88416 51.5,12.5C 51.2949,16.6727 49.6282,20.506 46.5,24C 47.7375,24.2321 48.7375,24.7321 49.5,25.5 Z"/></g>
<g><path style="opacity:1" fill="#dd6743" d="M 134.5,42.5 C 135.931,43.7804 136.598,45.4471 136.5,47.5C 134.744,46.4479 134.077,44.7812 134.5,42.5 Z"/></g>
<g><path style="opacity:1" fill="#e2653e" d="M 7.5,44.5 C 7.83333,44.5 8.16667,44.5 8.5,44.5C 8.66568,48.8461 8.49902,53.1794 8,57.5C 7.61742,58.056 7.11742,58.3893 6.5,58.5C 6.28336,53.7697 6.61669,49.1031 7.5,44.5 Z"/></g>
<g><path style="opacity:1" fill="#ea5e35" d="M 91.5,60.5 C 91.5,61.8333 91.5,63.1667 91.5,64.5C 88.2142,61.7327 85.2142,62.0661 82.5,65.5C 82.7135,63.8561 82.3802,62.3561 81.5,61C 84.8202,59.4933 88.1535,59.3266 91.5,60.5 Z"/></g>
<g><path style="opacity:1" fill="#e86338" d="M 82.5,65.5 C 79.4372,69.5658 75.7706,72.8991 71.5,75.5C 71.238,74.0222 71.5713,72.6888 72.5,71.5C 74.1221,70.0672 75.4554,68.4005 76.5,66.5C 77.6086,67.5896 78.6086,67.5896 79.5,66.5C 78.5396,65.1877 78.7063,63.8544 80,62.5C 80.3768,63.9423 81.2101,64.9423 82.5,65.5 Z"/></g>
<g><path style="opacity:1" fill="#e3643c" d="M 136.5,52.5 C 137.867,61.2995 138.534,70.2995 138.5,79.5C 137.883,79.3893 137.383,79.056 137,78.5C 136.5,69.8397 136.334,61.1731 136.5,52.5 Z"/></g>
<g><path style="opacity:1" fill="#df643c" d="M 98.5,74.5 C 96.5,77.1667 94.1667,79.5 91.5,81.5C 91.5,79.8333 91.5,78.1667 91.5,76.5C 93.9294,76.1156 96.2627,75.449 98.5,74.5 Z"/></g>
<g><path style="opacity:1" fill="#ee6333" d="M 71.5,75.5 C 69.8878,77.2976 68.3878,79.2976 67,81.5C 65.8873,82.305 64.7206,82.9717 63.5,83.5C 64.1667,78.8333 66.8333,76.1667 71.5,75.5 Z"/></g>
<g><path style="opacity:1" fill="#e46239" d="M 6.5,59.5 C 6.25166,67.0325 6.585,74.5325 7.5,82C 7.72239,84.2747 6.72239,85.4413 4.5,85.5C 4.5152,76.6351 5.18187,67.9684 6.5,59.5 Z"/></g>
<g><path style="opacity:1" fill="#e46239" d="M 117.5,90.5 C 117.167,90.5 116.833,90.5 116.5,90.5C 115.751,88.7538 114.417,87.7538 112.5,87.5C 109.895,88.7695 107.562,90.4361 105.5,92.5C 105.248,89.6301 106.248,87.2967 108.5,85.5C 110.776,86.2132 113.109,86.7132 115.5,87C 116.823,87.8159 117.489,88.9826 117.5,90.5 Z"/></g>
<g><path style="opacity:1" fill="#e8643a" d="M 63.5,83.5 C 62.2003,86.4323 60.2003,88.7656 57.5,90.5C 57.5564,87.606 58.3897,84.9393 60,82.5C 61.0113,83.3366 62.1779,83.67 63.5,83.5 Z"/></g>
<g><path style="opacity:0.953" fill="#dd6642" d="M 103.5,82.5 C 100.167,87.8333 95.8333,92.1667 90.5,95.5C 94.5,90.8333 98.8333,86.5 103.5,82.5 Z"/></g>
<g><path style="opacity:1" fill="#e56437" d="M 86.5,86.5 C 83.5,90.1667 80.1667,93.5 76.5,96.5C 76.67,95.1779 76.3366,94.0113 75.5,93C 76.7932,92.51 78.1266,92.3433 79.5,92.5C 79.1248,87.5049 81.4582,85.5049 86.5,86.5 Z"/></g>
<g><path style="opacity:1" fill="#dd643b" d="M 72.5,88.5 C 71.6295,91.1123 70.9628,93.779 70.5,96.5C 67.6542,93.2078 68.3209,90.5411 72.5,88.5 Z"/></g>
<g><path style="opacity:0.973" fill="#d4653f" d="M 102.5,95.5 C 101.833,96.8333 100.833,97.8333 99.5,98.5C 99.6282,96.9102 100.295,95.5769 101.5,94.5C 102.107,94.6236 102.44,94.9569 102.5,95.5 Z"/></g>
<g><path style="opacity:1" fill="#d96544" d="M 70.5,96.5 C 72.5,96.5 74.5,96.5 76.5,96.5C 74.406,98.9938 72.406,98.9938 70.5,96.5 Z"/></g>
<g><path style="opacity:1" fill="#de6541" d="M 138.5,79.5 C 139.515,85.9872 140.182,92.6538 140.5,99.5C 138.541,93.2504 137.874,86.5837 138.5,79.5 Z"/></g>
<g><path style="opacity:0.625" fill="#e16941" d="M 55.5,91.5 C 51.3346,97.9166 50.3346,104.917 52.5,112.5C 52.8284,115.501 51.8284,117.834 49.5,119.5C 50.1318,110.161 50.7985,100.828 51.5,91.5C 52.8333,91.5 54.1667,91.5 55.5,91.5 Z"/></g>
<g><path style="opacity:1" fill="#de623d" d="M 99.5,98.5 C 98.1667,100.5 96.5,102.167 94.5,103.5C 94.7733,101.549 94.1066,100.049 92.5,99C 94.8098,98.5034 97.1432,98.3367 99.5,98.5 Z"/></g>
<g><path style="opacity:1" fill="#e0623f" d="M 4.5,85.5 C 4.66629,92.5079 4.49962,99.5079 4,106.5C 3.78997,108.058 3.28997,109.391 2.5,110.5C 2.65506,101.978 3.32173,93.6442 4.5,85.5 Z"/></g>
<g><path style="opacity:0.949" fill="#d96a42" d="M 90.5,95.5 C 88.6117,98.8991 86.1117,101.899 83,104.5C 82.51,105.793 82.3433,107.127 82.5,108.5C 81.3871,107.054 81.2204,105.387 82,103.5C 84.7028,100.629 87.5361,97.9619 90.5,95.5 Z"/></g>
<g><path style="opacity:1" fill="#d76537" d="M 94.5,103.5 C 93.8333,104.833 92.8333,105.833 91.5,106.5C 91.5858,105.504 91.2524,104.671 90.5,104C 91.7932,103.51 93.1266,103.343 94.5,103.5 Z"/></g>
<g><path style="opacity:1" fill="#de653b" d="M 91.5,106.5 C 89.1183,110.775 86.1183,111.442 82.5,108.5C 85.6644,108.442 88.6644,107.776 91.5,106.5 Z"/></g>
<g><path style="opacity:0.949" fill="#d66440" d="M 116.5,90.5 C 116.833,90.5 117.167,90.5 117.5,90.5C 117.66,92.1992 117.494,93.8659 117,95.5C 109.245,103.76 101.078,111.426 92.5,118.5C 100.131,110.368 107.964,102.368 116,94.5C 116.49,93.2068 116.657,91.8734 116.5,90.5 Z"/></g>
<g><path style="opacity:0.945" fill="#dc643f" d="M 92.5,118.5 C 90.8333,122.167 88.1667,124.833 84.5,126.5C 86.8333,123.5 89.5,120.833 92.5,118.5 Z"/></g>
<g><path style="opacity:1" fill="#e9653c" d="M 48.5,120.5 C 45.1256,124.876 41.1256,128.542 36.5,131.5C 35.1755,128.205 36.5089,126.872 40.5,127.5C 40.3433,126.127 40.51,124.793 41,123.5C 43.6578,124.694 44.8244,123.694 44.5,120.5C 45.8333,120.5 47.1667,120.5 48.5,120.5 Z"/></g>
<g><path style="opacity:1" fill="#eb6238" d="M 30.5,137.5 C 27.5,141.167 24.1667,144.5 20.5,147.5C 20.4606,146.417 20.1272,145.417 19.5,144.5C 20.8333,143.833 22.1667,143.167 23.5,142.5C 22.675,141.614 21.675,141.281 20.5,141.5C 20.3433,140.127 20.51,138.793 21,137.5C 22.7542,139.25 24.9208,139.917 27.5,139.5C 27.5,138.167 27.5,136.833 27.5,135.5C 29.1788,135.285 30.1788,135.952 30.5,137.5 Z"/></g>
<g><path style="opacity:0.922" fill="#da6641" d="M 73.5,128.5 C 69.774,128.177 66.1073,128.511 62.5,129.5C 58.0887,133.92 53.422,137.92 48.5,141.5C 53.3021,135.19 59.1355,130.19 66,126.5C 68.7082,126.867 71.2082,127.534 73.5,128.5 Z"/></g>
<g><path style="opacity:0.8" fill="#d96c47" d="M 43.5,146.5 C 43.1667,148.833 41.8333,150.167 39.5,150.5C 40.5,148.833 41.8333,147.5 43.5,146.5 Z"/></g>
<g><path style="opacity:1" fill="#f25e2f" d="M 2.5,112.5 C 2.61047,124.516 2.27713,136.516 1.5,148.5C 2.67504,148.281 3.67504,148.614 4.5,149.5C 3.67443,150.451 3.50776,151.451 4,152.5C 7.63109,150.912 10.1311,148.246 11.5,144.5C 9.02058,141.594 8.85391,138.594 11,135.5C 11.6667,138.167 12.3333,140.833 13,143.5C 13.414,143.043 13.914,142.709 14.5,142.5C 16.321,143.728 17.321,145.394 17.5,147.5C 18.5,147.5 19.5,147.5 20.5,147.5C 19.5,149.167 18.1667,150.5 16.5,151.5C 14.8333,151.5 13.1667,151.5 11.5,151.5C 11.5,152.833 11.5,154.167 11.5,155.5C 10.1667,155.5 8.83333,155.5 7.5,155.5C 7.5,156.833 7.5,158.167 7.5,159.5C 6.18047,160.942 4.5138,161.608 2.5,161.5C 1.27187,160.694 0.271873,159.694 -0.5,158.5C -0.5,151.833 -0.5,145.167 -0.5,138.5C 0.5,129.833 1.5,121.167 2.5,112.5 Z"/></g>
<g><path style="opacity:1" fill="#e6623a" d="M 16.5,151.5 C 14.1667,154.5 11.5,157.167 8.5,159.5C 8.16667,159.5 7.83333,159.5 7.5,159.5C 7.5,158.167 7.5,156.833 7.5,155.5C 8.83333,155.5 10.1667,155.5 11.5,155.5C 11.5,154.167 11.5,152.833 11.5,151.5C 13.1667,151.5 14.8333,151.5 16.5,151.5 Z"/></g>
<g><path style="opacity:0.047" fill="#d86750" d="M 7.5,159.5 C 7.83333,159.5 8.16667,159.5 8.5,159.5C 7.52134,161.145 6.188,162.479 4.5,163.5C 3.4777,163.145 2.81103,162.478 2.5,161.5C 4.5138,161.608 6.18047,160.942 7.5,159.5 Z"/></g>
<g><path style="opacity:1" fill="#de6245" d="M 142.5,159.5 C 141.833,162.167 140.167,163.833 137.5,164.5C 137.5,163.5 137.5,162.5 137.5,161.5C 139.514,161.608 141.18,160.942 142.5,159.5 Z"/></g>
<g><path style="opacity:1" fill="#de673f" d="M 29.5,161.5 C 29.5,162.5 29.5,163.5 29.5,164.5C 65.5,164.5 101.5,164.5 137.5,164.5C 137.082,165.222 136.416,165.722 135.5,166C 98.5,166.667 61.5,166.667 24.5,166C 26.0375,164.293 27.7041,162.793 29.5,161.5 Z"/></g>
</svg>
