<?xml version="1.0" encoding="UTF-8"?><svg id="Capa_1" xmlns="http://www.w3.org/2000/svg" viewBox="0 0 768 315.25"><defs><style>.cls-1{fill:#fff;}</style></defs><g><polygon class="cls-1" points="143.5 42.54 124.89 59.51 143.5 76.49 155.76 87.67 155.76 119.03 102.77 70.7 102.77 48.32 155.76 0 155.76 31.36 143.5 42.54"/><polygon class="cls-1" points="12.26 42.54 30.88 59.51 12.26 76.49 0 87.67 0 119.03 52.99 70.7 52.99 48.32 0 0 0 31.36 12.26 42.54"/><path class="cls-1" d="M159.36,198.85l-12.1,24.11c-12.3,24.5-31.9,66.31-31.9,92.29h-19.1c0-19.91,9.7-49.11,18.82-72.71,1.01-2.61-.93-5.43-3.73-5.43h-5.79c-3.97,0-7.52,2.53-8.76,6.31-7.68,23.43-9.22,52.17-9.22,71.83h-19.65v-78.82c0-3.59-4.75-4.88-6.57-1.78-18.68,31.78-26.18,45.85-42.28,80.6H0c0-18.45,22.56-50.26,28.96-72.81,0,0-16.97-46.44,2.49-64.17l39.6-36.11c1.74-1.59,1.74-4.31,0-5.9l-2.92-2.66c-1.53-1.39-3.86-1.39-5.38,0l-12.71,11.6c-9.82,8.96-24.84,8.96-34.65,0-2.75-2.5-4.13-5.93-4.13-9.35s1.37-6.84,4.13-9.36l48.54-44.27c7.92-7.23,20.03-7.23,27.95,0l55.25,50.38c18.47,16.84,23.48,43.91,12.26,66.25Z"/></g><g><path class="cls-1" d="M222.3,14.05h51.37c36.99,0,62.36,22.29,62.36,56.54s-25.36,56.54-62.36,56.54h-51.37V14.05Zm50.08,91.6c22.46,0,37.16-13.41,37.16-35.06s-14.7-35.06-37.16-35.06h-23.91V105.65h23.91Z"/><path class="cls-1" d="M407.92,38.93v23.26c-2.1-.16-3.72-.32-5.65-.32-13.89,0-23.1,7.59-23.1,24.23v41.03h-25.2V40.23h24.07v11.47c6.14-8.4,16.48-12.76,29.89-12.76Z"/><path class="cls-1" d="M419.87,14.05c0-7.92,6.3-14.05,15.67-14.05s15.67,5.81,15.67,13.57c0,8.4-6.3,14.54-15.67,14.54s-15.67-6.14-15.67-14.05Zm3.07,26.17h25.2V127.14h-25.2V40.23Z"/><path class="cls-1" d="M561.22,40.23V112.6c0,32.31-17.45,47.17-48.79,47.17-16.48,0-32.47-4.04-42.65-11.96l10.02-18.09c7.43,5.98,19.55,9.86,30.69,9.86,17.77,0,25.52-8.08,25.52-23.75v-3.72c-6.62,7.27-16.16,10.82-27.46,10.82-24.07,0-43.46-16.64-43.46-42s19.39-42,43.46-42c12.12,0,22.13,4.04,28.76,12.44v-11.15h23.91Zm-24.88,40.71c0-12.76-9.53-21.32-22.78-21.32s-22.94,8.56-22.94,21.32,9.69,21.32,22.94,21.32,22.78-8.56,22.78-21.32Z"/><path class="cls-1" d="M674.3,40.23V112.6c0,32.31-17.45,47.17-48.79,47.17-16.48,0-32.47-4.04-42.65-11.96l10.02-18.09c7.43,5.98,19.55,9.86,30.69,9.86,17.77,0,25.52-8.08,25.52-23.75v-3.72c-6.62,7.27-16.16,10.82-27.46,10.82-24.07,0-43.46-16.64-43.46-42s19.39-42,43.46-42c12.12,0,22.13,4.04,28.76,12.44v-11.15h23.91Zm-24.88,40.71c0-12.76-9.53-21.32-22.78-21.32s-22.94,8.56-22.94,21.32,9.69,21.32,22.94,21.32,22.78-8.56,22.78-21.32Z"/><path class="cls-1" d="M689.33,119.06l8.4-18.09c7.75,5.01,19.55,8.4,30.21,8.4,11.63,0,15.99-3.07,15.99-7.91,0-14.22-52.5,.32-52.5-34.41,0-16.48,14.86-28.11,40.23-28.11,11.96,0,25.2,2.75,33.44,7.59l-8.4,17.93c-8.56-4.85-17.12-6.46-25.04-6.46-11.31,0-16.16,3.56-16.16,8.08,0,14.86,52.5,.48,52.5,34.73,0,16.15-15.02,27.62-41.03,27.62-14.7,0-29.56-4.04-37.64-9.37Z"/><path class="cls-1" d="M215.19,256.77c0-34.09,26.17-58.48,61.39-58.48,19.55,0,35.86,7.11,46.53,20.03l-16.8,15.51c-7.59-8.72-17.12-13.25-28.43-13.25-21.16,0-36.19,14.86-36.19,36.19s15.03,36.19,36.19,36.19c11.31,0,20.84-4.52,28.43-13.41l16.8,15.51c-10.66,13.08-26.98,20.19-46.69,20.19-35.06,0-61.23-24.4-61.23-58.48Z"/><path class="cls-1" d="M329.4,269.86c0-26.17,20.19-44.75,47.82-44.75s47.66,18.58,47.66,44.75-20.03,44.75-47.66,44.75-47.82-18.58-47.82-44.75Zm69.95,0c0-15.02-9.53-24.07-22.13-24.07s-22.29,9.05-22.29,24.07,9.69,24.07,22.29,24.07,22.13-9.05,22.13-24.07Z"/><path class="cls-1" d="M530.21,193.44v119.87h-24.07v-10.02c-6.3,7.59-15.51,11.31-27.14,11.31-24.55,0-43.46-17.45-43.46-44.75s18.9-44.75,43.46-44.75c10.66,0,19.71,3.39,26.01,10.5v-42.16h25.2Zm-24.72,76.41c0-15.02-9.69-24.07-22.13-24.07s-22.29,9.05-22.29,24.07,9.69,24.07,22.29,24.07,22.13-9.05,22.13-24.07Z"/><path class="cls-1" d="M638.12,276.96h-65.75c2.42,10.82,11.63,17.45,24.88,17.45,9.21,0,15.83-2.75,21.81-8.4l13.41,14.54c-8.08,9.21-20.19,14.06-35.86,14.06-30.05,0-49.6-18.9-49.6-44.75s19.87-44.75,46.36-44.75,45.24,17.12,45.24,45.07c0,1.94-.32,4.68-.48,6.79Zm-66.07-14.7h42.81c-1.78-10.99-10.02-18.09-21.32-18.09s-19.71,6.95-21.49,18.09Z"/></g></svg>